<?xml version="1.0" encoding="UTF-8"?>
<svg xmlns="http://www.w3.org/2000/svg" xmlns:xlink="http://www.w3.org/1999/xlink" width="375pt" height="374.999991pt" viewBox="0 0 375 374.999991" version="1.2">
<defs>
<clipPath id="clip1">
  <path d="M 8.367188 198 L 145 198 L 145 334.613281 L 8.367188 334.613281 Z M 8.367188 198 "/>
</clipPath>
<clipPath id="clip2">
  <path d="M 8.367188 176 L 198 176 L 198 199 L 8.367188 199 Z M 8.367188 176 "/>
</clipPath>
<clipPath id="clip3">
  <path d="M 144 176 L 198 176 L 198 334.613281 L 144 334.613281 Z M 144 176 "/>
</clipPath>
<clipPath id="clip4">
  <path d="M 178 173 L 366.867188 173 L 366.867188 196 L 178 196 Z M 178 173 "/>
</clipPath>
<clipPath id="clip5">
  <path d="M 314 173 L 366.867188 173 L 366.867188 332 L 314 332 Z M 314 173 "/>
</clipPath>
<clipPath id="clip6">
  <path d="M 88 40.613281 L 278 40.613281 L 278 63 L 88 63 Z M 88 40.613281 "/>
</clipPath>
<clipPath id="clip7">
  <path d="M 224 40.613281 L 278 40.613281 L 278 199 L 224 199 Z M 224 40.613281 "/>
</clipPath>
</defs>
<g id="surface1">
<g clip-path="url(#clip1)" clip-rule="nonzero">
<path style=" stroke:none;fill-rule:nonzero;fill:rgb(50.19989%,80.389404%,76.469421%);fill-opacity:1;" d="M 8.367188 198.585938 L 144.511719 198.585938 L 144.511719 334.757812 L 8.367188 334.757812 L 8.367188 198.585938 "/>
</g>
<g clip-path="url(#clip2)" clip-rule="nonzero">
<path style=" stroke:none;fill-rule:nonzero;fill:rgb(45.098877%,78.039551%,74.119568%);fill-opacity:1;" d="M 8.367188 198.585938 L 60.925781 176.515625 L 197.066406 176.515625 L 144.511719 198.585938 L 8.367188 198.585938 "/>
</g>
<g clip-path="url(#clip3)" clip-rule="nonzero">
<path style=" stroke:none;fill-rule:nonzero;fill:rgb(42.349243%,76.858521%,73.329163%);fill-opacity:1;" d="M 144.511719 334.757812 L 197.066406 312.691406 L 197.066406 176.515625 L 144.511719 198.585938 L 144.511719 334.757812 "/>
</g>
<path style=" stroke:none;fill-rule:nonzero;fill:rgb(100%,100%,100%);fill-opacity:1;" d="M 89.625 273.667969 L 75.542969 241.910156 L 62.449219 273.667969 Z M 71.238281 222.625 L 80.117188 222.625 L 119.308594 310.71875 L 106.484375 310.71875 L 94.824219 284.789062 L 57.605469 284.789062 L 46.574219 310.71875 L 33.660156 310.71875 L 71.238281 222.625 "/>
<path style=" stroke:none;fill-rule:nonzero;fill:rgb(65.489197%,83.918762%,20.388794%);fill-opacity:1;" d="M 178.414062 195.53125 L 314.554688 195.53125 L 314.554688 331.707031 L 178.414062 331.707031 L 178.414062 195.53125 "/>
<g clip-path="url(#clip4)" clip-rule="nonzero">
<path style=" stroke:none;fill-rule:nonzero;fill:rgb(59.999084%,81.959534%,12.548828%);fill-opacity:1;" d="M 178.414062 195.53125 L 230.96875 173.46875 L 367.113281 173.46875 L 314.554688 195.53125 L 178.414062 195.53125 "/>
</g>
<g clip-path="url(#clip5)" clip-rule="nonzero">
<path style=" stroke:none;fill-rule:nonzero;fill:rgb(58.81958%,79.60968%,13.328552%);fill-opacity:1;" d="M 314.554688 331.707031 L 367.113281 309.640625 L 367.113281 173.46875 L 314.554688 195.53125 L 314.554688 331.707031 "/>
</g>
<path style=" stroke:none;fill-rule:nonzero;fill:rgb(100%,100%,100%);fill-opacity:1;" d="M 285.855469 287.210938 L 285.855469 301.027344 C 276.621094 306.050781 266.039062 308.5625 254.019531 308.5625 C 244.242188 308.5625 235.902344 306.589844 229.089844 302.644531 C 222.269531 298.695312 216.890625 293.3125 212.945312 286.40625 C 208.996094 279.5 207.023438 272.054688 207.023438 263.980469 C 207.023438 251.242188 211.597656 240.476562 220.65625 231.777344 C 229.804688 223.070312 241.011719 218.769531 254.289062 218.769531 C 263.527344 218.769531 273.660156 221.191406 284.960938 225.945312 L 284.960938 239.402344 C 274.738281 233.570312 264.691406 230.609375 254.914062 230.609375 C 244.871094 230.609375 236.527344 233.75 229.894531 240.117188 C 223.257812 246.394531 220.027344 254.382812 220.027344 263.886719 C 220.027344 273.488281 223.257812 281.382812 229.804688 287.574219 C 236.351562 293.761719 244.691406 296.8125 254.828125 296.8125 C 265.410156 296.992188 275.8125 293.761719 285.855469 287.210938 "/>
<path style=" stroke:none;fill-rule:nonzero;fill:rgb(95.289612%,50.979614%,62.748718%);fill-opacity:1;" d="M 88.730469 62.765625 L 224.871094 62.765625 L 224.871094 198.941406 L 88.730469 198.941406 L 88.730469 62.765625 "/>
<g clip-path="url(#clip6)" clip-rule="nonzero">
<path style=" stroke:none;fill-rule:nonzero;fill:rgb(94.898987%,45.098877%,58.039856%);fill-opacity:1;" d="M 88.730469 62.765625 L 141.28125 40.703125 L 277.429688 40.703125 L 224.871094 62.765625 L 88.730469 62.765625 "/>
</g>
<g clip-path="url(#clip7)" clip-rule="nonzero">
<path style=" stroke:none;fill-rule:nonzero;fill:rgb(94.119263%,39.99939%,53.729248%);fill-opacity:1;" d="M 224.871094 198.941406 L 277.429688 176.875 L 277.429688 40.703125 L 224.871094 62.765625 L 224.871094 198.941406 "/>
</g>
<path style=" stroke:none;fill-rule:nonzero;fill:rgb(100%,100%,100%);fill-opacity:1;" d="M 151.0625 135.699219 L 139.308594 135.699219 L 139.308594 163.507812 L 151.6875 163.507812 C 158.503906 163.507812 163.167969 162.96875 165.589844 161.984375 C 168.011719 160.910156 169.984375 159.203125 171.507812 156.960938 C 173.035156 154.714844 173.75 152.296875 173.75 149.695312 C 173.75 147.003906 172.941406 144.578125 171.328125 142.335938 C 169.804688 140.09375 167.5625 138.480469 164.691406 137.402344 C 161.910156 136.238281 157.339844 135.699219 151.0625 135.699219 Z M 150.164062 98.203125 L 139.402344 98.203125 L 139.402344 124.578125 L 147.738281 124.578125 C 154.464844 124.578125 159.132812 123.320312 162 120.71875 C 164.871094 118.207031 166.308594 114.886719 166.308594 110.851562 C 166.214844 102.328125 160.835938 98.203125 150.164062 98.203125 Z M 156.441406 174.628906 L 126.753906 174.628906 L 126.753906 86.988281 L 149.714844 86.988281 C 156.976562 86.988281 162.628906 87.976562 166.664062 89.949219 C 170.699219 91.835938 173.839844 94.527344 175.902344 97.929688 C 178.054688 101.339844 179.128906 105.289062 179.128906 109.683594 C 179.128906 118.296875 174.644531 124.484375 165.769531 128.164062 C 172.136719 129.417969 177.25 132.019531 181.015625 136.058594 C 184.78125 140.09375 186.753906 144.941406 186.753906 150.59375 C 186.753906 155.078125 185.589844 159.023438 183.347656 162.609375 C 181.015625 166.109375 177.695312 168.980469 173.210938 171.222656 C 168.726562 173.46875 163.167969 174.628906 156.441406 174.628906 "/>
</g>
</svg>
